<svg width="14" height="14" viewBox="0 0 14 14" fill="none" xmlns="http://www.w3.org/2000/svg">
<path d="M6.99997 4.6785C5.71788 4.6785 4.67854 5.71784 4.67854 6.99993C4.67854 8.28202 5.71788 9.32136 6.99997 9.32136C8.28206 9.32136 9.3214 8.28202 9.3214 6.99993C9.3214 5.71784 8.28206 4.6785 6.99997 4.6785Z" fill="#29CDB5"/>
<path fill-rule="evenodd" clip-rule="evenodd" d="M3.26393 0.629548C5.72687 0.354278 8.27309 0.354278 10.736 0.629548C12.092 0.781101 13.1857 1.84951 13.3449 3.21027C13.6394 5.72813 13.6394 8.27173 13.3449 10.7896C13.1857 12.1503 12.092 13.2188 10.736 13.3703C8.27309 13.6456 5.72687 13.6456 3.26393 13.3703C1.90793 13.2188 0.814221 12.1503 0.655069 10.7896C0.360582 8.27173 0.360582 5.72813 0.655069 3.21027C0.814221 1.84951 1.90793 0.781101 3.26393 0.629548ZM10.5714 2.71421C10.1769 2.71421 9.85711 3.03401 9.85711 3.4285C9.85711 3.82299 10.1769 4.14279 10.5714 4.14279C10.9659 4.14279 11.2857 3.82299 11.2857 3.4285C11.2857 3.03401 10.9659 2.71421 10.5714 2.71421ZM3.60712 6.99993C3.60712 5.1261 5.12615 3.60707 6.99997 3.60707C8.8738 3.60707 10.3928 5.1261 10.3928 6.99993C10.3928 8.87375 8.8738 10.3928 6.99997 10.3928C5.12615 10.3928 3.60712 8.87375 3.60712 6.99993Z" fill="#29CDB5"/>
</svg>
